<?xml version="1.0" encoding="UTF-8"?>
<!DOCTYPE svg PUBLIC "-//W3C//DTD SVG 1.1//EN" "http://www.w3.org/Graphics/SVG/1.1/DTD/svg11.dtd">
<!-- Creator: CorelDRAW X7 -->
<svg xmlns="http://www.w3.org/2000/svg" xml:space="preserve" width="84.028mm" height="23.382mm" version="1.1" style="shape-rendering:geometricPrecision; text-rendering:geometricPrecision; image-rendering:optimizeQuality; fill-rule:evenodd; clip-rule:evenodd"
viewBox="0 0 2556 711"
 xmlns:xlink="http://www.w3.org/1999/xlink">
 <defs>
  <style type="text/css">
   <![CDATA[
    .fil4 {fill:none}
    .fil0 {fill:#373435}
    .fil2 {fill:#FFF212}
    .fil1 {fill:#ED3237}
    .fil3 {fill:#F8ED3F}
   ]]>
  </style>
 </defs>
 <g id="Camada_x0020_1">
  <metadata id="CorelCorpID_0Corel-Layer"/>
  <g id="_1753075878240">
   <g>
    <polygon class="fil0" points="1857,127 1857,212 1832,212 1832,127 "/>
    <polygon class="fil0" points="1905,127 1934,190 1934,127 1955,127 1955,212 1921,212 1893,148 1893,212 1871,212 1871,127 "/>
    <path class="fil0" d="M1991 185c0,0 0,0 0,1 0,0 0,0 0,1 0,0 0,0 0,0 0,0 0,1 0,1 0,0 0,0 0,0 0,1 1,1 1,1 0,1 0,2 1,3 0,1 1,2 2,2 1,1 2,2 4,2 1,1 3,1 5,1 2,0 4,0 6,-1 1,0 2,-1 4,-2 1,0 2,-1 2,-2 1,-1 1,-2 1,-3 0,0 0,0 0,0 0,-1 0,-1 0,-1 0,0 0,0 0,0 0,0 0,0 0,0 0,0 0,0 0,0 0,0 0,0 0,-1 0,0 0,0 0,0 0,0 0,0 0,0 0,-1 -1,-2 -2,-3 0,0 -1,-1 -2,-2 -2,-1 -3,-2 -5,-2 -1,-1 -3,-1 -5,-2 0,0 0,0 0,0 0,0 0,0 0,0 -1,0 -1,0 -1,0 0,0 0,0 0,0 -6,-1 -12,-3 -16,-4 -4,-2 -7,-4 -10,-5 -2,-2 -4,-4 -5,-7 -1,-3 -2,-6 -2,-10 0,0 0,0 0,0 0,0 0,0 0,0 0,-1 0,-1 0,-1 0,0 0,0 0,0 0,0 0,0 0,0 0,-4 1,-8 2,-11 2,-3 5,-6 8,-8 4,-2 8,-4 12,-5 4,-1 9,-2 14,-2 7,1 13,1 17,3 5,1 8,3 10,6 3,2 4,5 6,8 1,3 1,7 1,10l-24 0c0,-1 0,-2 -1,-3 0,-2 -1,-3 -2,-3 -1,-1 -2,-2 -3,-2 -2,-1 -3,-1 -5,-1 -2,0 -3,0 -4,1 -2,0 -3,1 -4,1 0,1 -1,2 -1,3 -1,1 -1,1 -1,2 0,0 0,1 0,1 0,0 0,0 0,0 0,0 0,0 0,0 0,0 0,0 0,0 0,1 0,2 1,3 0,0 1,1 2,2 1,1 2,1 3,2 1,0 2,1 4,1 1,0 2,0 3,0 1,0 2,1 2,1 1,0 2,0 3,0 1,1 2,1 3,1 4,1 7,2 10,3 3,1 6,3 9,5 2,1 4,4 6,7 1,2 2,6 2,10 0,5 -1,9 -3,13 -2,3 -4,6 -8,9 -4,2 -8,4 -12,5 -4,1 -9,1 -14,1 -6,0 -12,0 -16,-2 -5,-1 -9,-3 -12,-5 -3,-3 -6,-6 -7,-9 -2,-4 -3,-8 -3,-13l0 0 24 0z"/>
    <polygon class="fil0" points="2125,127 2125,145 2098,145 2098,212 2075,212 2075,145 2048,145 2048,127 "/>
    <polygon class="fil0" points="2158,127 2158,212 2134,212 2134,127 "/>
    <polygon class="fil0" points="2243,127 2243,145 2216,145 2216,212 2193,212 2193,145 2166,145 2166,127 "/>
    <path class="fil0" d="M2277 127l0 50c0,3 0,6 0,9 1,2 2,4 3,6 2,2 3,3 5,4 3,1 5,2 8,2 4,0 6,-1 9,-2 2,-1 4,-2 5,-4 1,-2 2,-4 3,-7 0,-2 1,-5 1,-9l0 -49 24 0 0 53c0,5 -1,10 -3,14 -1,4 -4,8 -7,11 -3,4 -7,6 -13,8 -5,1 -11,2 -19,2 -6,0 -12,-1 -17,-2 -5,-2 -9,-4 -13,-8 -3,-3 -6,-7 -8,-11 -2,-4 -3,-8 -3,-13l0 -54 25 0z"/>
    <polygon class="fil0" points="2420,127 2420,145 2393,145 2393,212 2370,212 2370,145 2343,145 2343,127 "/>
    <path class="fil0" d="M2452 180c1,3 2,6 4,9 1,3 3,5 6,7 3,1 6,2 9,2 3,0 6,-1 8,-2 2,-1 4,-3 6,-5 1,-3 3,-5 3,-9 1,-3 2,-7 2,-12 0,-4 -1,-7 -1,-10 -1,-4 -2,-7 -4,-10 -1,-2 -3,-4 -6,-6 -2,-1 -5,-2 -9,-2 -3,0 -6,1 -9,2 -2,2 -4,4 -5,7 -2,3 -3,6 -4,9 -1,3 -1,6 -1,10l0 0c0,3 0,7 1,10zm-24 -26c2,-5 4,-10 7,-15 3,-4 7,-8 13,-10 6,-2 14,-4 23,-4 0,0 0,0 0,0 1,0 1,0 1,0 0,0 0,0 0,0 0,0 0,0 0,0 1,0 1,0 1,0 0,0 0,0 0,0 0,0 0,0 0,0 1,0 1,0 1,0 5,1 10,2 14,3 5,2 10,4 14,7 4,3 7,7 9,13 3,6 4,13 4,22 0,1 0,2 0,3 0,2 -1,3 -1,4 0,1 0,1 0,2 0,1 0,1 0,2 0,1 0,1 -1,2 0,1 0,1 0,2 -1,4 -2,7 -4,10 -2,4 -5,7 -8,10 -3,3 -7,5 -12,7 -4,1 -10,2 -17,2 -9,0 -16,-1 -22,-3 -6,-2 -11,-5 -14,-9 -3,-5 -5,-9 -7,-14 -2,-4 -3,-9 -3,-15 0,0 0,0 0,0 0,0 0,0 0,0 0,0 0,0 0,0 0,-1 0,-1 0,-1 0,0 0,0 0,0 0,-1 0,-1 0,-1l0 0c0,-6 1,-12 2,-17z"/>
    <path class="fil0" d="M1869 337c4,0 8,0 11,-2 3,-1 5,-2 7,-5 2,-2 3,-5 5,-7 1,-3 1,-6 2,-8 0,0 0,-1 0,-1 0,0 0,0 0,0 0,0 0,0 0,0 0,0 0,0 0,-1 0,0 0,0 0,0 0,0 0,0 0,0 0,0 0,0 0,-1 0,0 0,0 0,0 0,0 0,0 0,0 0,0 0,-1 0,-1 0,0 0,0 0,0 0,-1 0,-1 0,-1 0,0 -1,-1 -1,-1 0,0 0,-1 0,-1 0,-3 -1,-5 -2,-8 -1,-2 -3,-5 -5,-7 -2,-2 -4,-4 -7,-5 -3,-1 -5,-2 -9,-2l-13 0 0 51 12 0zm0 -69c10,1 18,2 25,4 6,2 11,5 15,10 3,4 5,9 7,14 2,5 3,10 3,16 0,0 0,0 0,0 0,0 0,0 0,0 0,0 0,0 0,0 0,0 0,1 0,1 0,0 0,0 0,0 0,0 0,0 0,0 0,0 0,1 0,1 0,0 0,0 0,0 0,0 0,0 0,0 0,1 0,1 0,1 -1,7 -2,12 -4,17 -2,5 -5,9 -9,12 -4,4 -9,6 -13,7 -5,2 -9,3 -14,3l-46 0 0 -86 36 0z"/>
    <polygon class="fil0" points="1996,268 1996,286 1955,286 1955,303 1993,303 1993,320 1955,320 1955,337 1996,337 1996,354 1931,354 1931,268 "/>
    <polygon class="fil0" points="2113,268 2113,286 2073,286 2073,303 2111,303 2111,320 2073,320 2073,337 2113,337 2113,354 2048,354 2048,268 "/>
    <polygon class="fil0" points="2161,268 2189,331 2189,268 2211,268 2211,354 2177,354 2149,290 2149,354 2127,354 2127,268 "/>
    <path class="fil0" d="M2247 326c0,0 0,1 0,1 0,0 0,1 0,1 0,0 0,0 0,1 0,0 0,0 0,0 0,0 0,1 0,1 0,0 0,0 0,0 1,1 1,2 2,3 0,1 1,2 2,3 1,0 2,1 4,1 1,1 3,1 5,1 2,0 4,0 5,-1 2,0 3,-1 4,-1 2,-1 2,-2 3,-3 1,-1 1,-2 1,-3 0,0 0,0 0,0 0,0 0,0 0,0 0,0 0,0 0,-1 0,0 0,0 0,0 0,0 0,0 0,0 0,0 0,0 0,0 0,0 0,0 0,0 0,-1 0,-1 0,-1 -1,-1 -1,-1 -2,-2 -1,-1 -1,-2 -3,-3 -1,-1 -2,-1 -4,-2 -1,-1 -3,-1 -5,-1 0,0 0,0 0,0 0,0 -1,0 -1,0 0,0 0,0 0,0 0,-1 0,-1 0,-1 -6,-1 -12,-2 -16,-4 -4,-2 -8,-3 -10,-5 -2,-2 -4,-4 -5,-7 -1,-3 -2,-6 -2,-9 0,-1 0,-1 0,-1 0,0 0,0 0,0 0,0 0,0 0,0 0,0 0,0 0,-1 0,0 0,0 0,0 0,-4 0,-8 2,-11 2,-3 5,-6 8,-8 4,-2 7,-4 12,-5 4,-1 9,-1 14,-1 7,0 13,1 17,2 5,1 8,3 10,6 3,2 4,5 5,8 2,3 2,7 2,11l-24 -1c0,-1 0,-2 -1,-3 0,-1 -1,-2 -2,-3 -1,-1 -2,-2 -3,-2 -2,-1 -3,-1 -5,-1 -2,0 -3,0 -5,1 -1,0 -2,1 -3,2 -1,0 -1,1 -2,2 0,1 0,2 0,3 0,0 0,0 0,0 0,0 0,0 0,0 0,0 0,0 0,0 0,0 0,0 0,0 0,1 0,2 1,3 0,1 1,1 1,2 1,1 2,2 4,2 1,1 2,1 4,1 1,0 2,0 2,1 1,0 2,0 3,0 1,0 2,0 3,1 1,0 2,0 3,0 3,1 7,2 10,3 3,2 6,3 8,5 3,2 5,4 7,7 1,3 2,6 2,10 0,5 -1,9 -3,13 -2,4 -4,7 -8,9 -4,2 -8,4 -12,5 -4,1 -9,1 -14,1 -6,0 -12,0 -17,-1 -4,-2 -8,-3 -11,-6 -3,-2 -6,-5 -7,-9 -2,-4 -3,-8 -3,-13l0 0 24 0z"/>
    <polygon class="fil0" points="2335,268 2335,354 2311,354 2311,268 "/>
    <polygon class="fil0" points="2383,268 2412,331 2412,268 2433,268 2433,354 2400,354 2371,290 2371,354 2350,354 2350,268 "/>
    <path class="fil0" d="M2472 321c0,3 2,6 3,9 2,3 4,5 7,7 2,1 5,2 9,2 3,0 5,-1 8,-2 2,-1 4,-3 5,-5 2,-2 3,-5 4,-9 1,-3 1,-7 1,-12 0,-3 0,-7 -1,-10 -1,-3 -2,-6 -3,-9 -2,-3 -4,-5 -6,-6 -3,-2 -6,-3 -9,-3 -4,0 -7,1 -9,3 -3,1 -4,3 -6,6 -1,3 -2,6 -3,9 -1,3 -1,7 -2,10l0 0c0,4 1,7 2,10zm-24 -25c1,-6 4,-11 6,-15 3,-5 8,-8 14,-11 6,-2 13,-3 23,-3 0,0 0,0 0,0 0,0 0,0 0,0 0,0 1,0 1,0 0,0 0,0 0,0 0,0 0,0 0,0 0,0 1,0 1,0 0,0 0,0 0,0 0,0 0,0 0,0 5,0 10,1 15,2 5,2 9,4 13,7 5,3 8,8 10,13 2,6 3,14 3,22 0,1 0,3 0,4 0,1 0,2 0,3 0,1 0,2 0,2 0,1 -1,2 -1,2 0,1 0,2 0,2 0,1 0,1 0,2 -1,4 -3,7 -5,11 -2,3 -4,6 -7,9 -3,3 -7,6 -12,7 -5,2 -11,2 -17,2 -9,0 -17,-1 -23,-3 -6,-2 -10,-5 -13,-9 -3,-4 -6,-9 -7,-13 -2,-5 -3,-10 -4,-15 0,0 0,0 0,0 0,-1 0,-1 0,-1 0,0 0,0 0,0 0,0 0,0 0,0 0,-1 0,-1 0,-1 0,0 0,-1 0,-1l0 0c0,-6 1,-11 3,-16z"/>
    <path class="fil0" d="M1854 467c0,0 0,1 0,1 0,1 0,1 0,1 0,0 0,1 0,1 0,0 0,0 0,0 0,1 0,1 0,1 0,0 0,0 0,1 1,1 1,2 2,2 0,1 1,2 2,3 1,1 2,1 3,2 2,0 4,0 6,0 2,0 4,0 5,0 2,-1 3,-1 4,-2 1,-1 2,-2 3,-3 0,-1 1,-2 1,-3 0,0 0,0 0,0 0,0 0,0 0,0 0,0 0,0 0,0 0,0 0,0 0,0 0,-1 0,-1 0,-1 0,0 0,0 0,0 0,0 0,0 0,0 0,0 0,0 0,0 -1,-1 -1,-2 -2,-3 -1,-1 -2,-2 -3,-2 -1,-1 -2,-2 -4,-3 -1,0 -3,-1 -5,-1 0,0 0,0 -1,0 0,0 0,0 0,0 0,0 0,0 0,0 0,0 0,0 0,0 -6,-2 -12,-3 -16,-5 -4,-1 -8,-3 -10,-5 -2,-2 -4,-4 -5,-7 -2,-2 -2,-6 -3,-9 0,0 0,0 0,-1 0,0 0,0 0,0 0,0 0,0 0,0 0,0 0,0 0,0 0,0 0,0 0,0 0,-5 1,-8 3,-11 2,-4 4,-6 8,-9 3,-2 7,-3 12,-4 4,-1 9,-2 14,-2 7,0 12,1 17,2 5,2 8,4 10,6 2,3 4,5 5,9 1,3 2,6 2,10l-24 0c0,-2 0,-3 -1,-4 0,-1 -1,-2 -2,-3 -1,-1 -2,-1 -4,-2 -1,0 -3,0 -4,0 -2,0 -3,0 -5,0 -1,1 -2,1 -3,2 -1,1 -1,1 -2,2 0,1 0,2 0,3 0,0 0,0 0,0 0,0 0,0 0,0 0,0 0,1 0,1 0,0 0,0 0,0 0,1 0,1 0,2 1,1 2,2 2,2 1,1 2,2 4,2 1,1 2,1 4,1 1,0 1,1 2,1 1,0 2,0 3,0 1,1 2,1 3,1 1,0 2,0 3,1 3,0 6,1 10,3 3,1 6,2 8,4 3,2 5,4 7,7 1,3 2,6 2,10 0,5 -1,10 -3,13 -2,4 -5,7 -8,9 -4,2 -8,4 -12,5 -5,1 -9,2 -14,2 -7,0 -12,-1 -17,-2 -4,-1 -8,-3 -11,-6 -4,-2 -6,-5 -8,-9 -1,-4 -2,-8 -2,-13l0 0 24 0z"/>
    <path class="fil0" d="M1943 410l0 50c0,3 0,6 1,8 0,3 1,5 3,7 1,2 3,3 5,4 2,1 4,1 7,1 4,0 7,0 9,-1 2,-1 4,-3 5,-4 2,-2 2,-5 3,-7 1,-3 1,-6 1,-9l0 -49 24 0 0 52c0,6 -1,10 -2,15 -2,4 -4,8 -8,11 -3,3 -7,6 -13,7 -5,2 -11,3 -19,3 -6,0 -11,-1 -16,-3 -5,-1 -10,-4 -13,-7 -4,-3 -7,-7 -9,-11 -1,-4 -2,-9 -2,-13l0 -54 24 0z"/>
    <path class="fil0" d="M2041 448l11 0c2,0 4,0 6,-1 2,0 3,-1 4,-2 2,-1 3,-3 3,-4 1,-1 1,-3 1,-4 0,-2 0,-4 -1,-5 -1,-1 -2,-2 -3,-3 -2,-1 -4,-2 -6,-2 -1,0 -4,-1 -6,-1l-9 0 0 22zm18 -38c5,0 10,0 15,2 4,1 7,2 10,5 2,2 4,5 5,8 1,3 2,7 2,12 0,4 -1,8 -2,11 -1,4 -3,6 -5,8 -3,2 -6,4 -8,5 -3,2 -6,2 -9,3 -1,0 -1,0 -2,0 0,0 -1,0 -2,0 0,0 -1,1 -2,1 0,0 -1,0 -1,0l-19 -1 0 31 -24 0 0 -85 42 0z"/>
    <polygon class="fil0" points="2166,410 2166,427 2125,427 2125,444 2163,444 2163,462 2125,462 2125,478 2166,478 2166,495 2101,495 2101,410 "/>
    <path class="fil0" d="M2203 446l9 0c1,0 1,0 1,0 0,0 0,0 1,0 0,0 0,0 0,0 0,0 0,0 1,0 1,0 2,0 4,-1 1,0 2,0 4,-1 1,-1 2,-2 2,-3 1,-1 1,-2 1,-4 0,-2 0,-3 -1,-4 0,-2 -1,-3 -2,-3 -2,-1 -3,-2 -5,-2 -1,0 -3,-1 -5,-1l-10 0 0 19zm14 -36c0,0 0,0 1,0 0,0 0,0 0,0 0,0 0,0 1,0 0,0 0,0 0,0 4,0 8,0 12,1 3,1 7,2 10,3 4,2 6,4 8,7 1,3 2,7 2,11 0,4 0,7 -1,9 -1,3 -3,5 -5,6 -2,2 -4,3 -6,4 -3,1 -5,2 -8,2 4,1 7,1 10,3 3,1 4,3 5,6 1,3 2,5 3,8 1,3 1,6 1,9 0,0 0,0 0,1 0,0 0,0 0,0 0,0 0,0 0,0 0,0 1,0 1,0 0,2 0,3 0,4 0,1 0,3 0,4 1,1 1,3 1,4 0,1 1,2 1,3l-26 0c0,-1 0,-1 0,-2 -1,-1 -1,-2 -1,-3 0,-1 0,-2 0,-3 0,-1 0,-2 0,-4 0,0 0,0 0,0 0,0 0,0 0,0 -1,0 -1,0 -1,-1 0,0 0,0 0,0 0,0 0,0 0,-1 0,0 0,0 0,0 0,-3 0,-5 0,-7 -1,-2 -1,-4 -2,-6 -1,-2 -2,-3 -3,-4 -2,-1 -4,-1 -6,-1l-11 -1 0 33 -24 0 0 -85 38 0z"/>
    <polygon class="fil0" points="2289,410 2289,495 2265,495 2265,410 "/>
    <path class="fil0" d="M2328 462c0,4 2,7 3,10 2,2 4,5 7,6 2,2 5,2 9,2 3,0 5,0 8,-1 2,-2 4,-3 6,-6 1,-2 2,-5 3,-8 1,-4 1,-8 1,-13 0,-3 0,-7 -1,-10 0,-3 -2,-6 -3,-9 -2,-3 -4,-5 -6,-6 -3,-2 -6,-2 -9,-2 -4,0 -7,0 -9,2 -2,1 -4,4 -6,6 -1,3 -2,6 -3,10 -1,3 -1,6 -2,9l0 0c0,4 1,7 2,10zm-24 -25c2,-5 4,-10 7,-15 2,-5 7,-8 13,-10 6,-3 14,-4 23,-4 0,0 0,0 0,0 0,0 0,0 0,0 1,0 1,0 1,0 0,0 0,0 0,0 0,0 0,0 0,0 1,0 1,0 1,0 0,0 0,0 0,0 0,0 0,0 0,0 5,0 10,1 15,3 5,1 9,4 14,7 4,3 7,7 9,13 2,6 3,13 3,21 0,2 0,3 0,4 0,1 0,2 0,4 0,0 0,1 0,2 0,0 0,1 0,1 -1,1 -1,2 -1,2 0,1 0,2 0,2 -1,4 -3,8 -5,11 -2,3 -4,7 -7,10 -3,3 -7,5 -12,7 -5,1 -11,2 -17,2 -9,0 -17,-1 -23,-3 -6,-2 -10,-6 -13,-10 -3,-4 -6,-9 -7,-13 -2,-5 -3,-10 -4,-15 0,0 0,0 0,0 0,0 0,0 0,-1 0,0 0,0 0,0 0,0 0,0 0,0 0,0 0,-1 0,-1 0,0 0,0 0,-1l0 0c1,-6 1,-11 3,-16z"/>
    <path class="fil0" d="M2426 446l9 0c0,0 0,0 0,0 1,0 1,0 1,0 0,0 0,0 1,0 0,0 0,0 0,0 2,0 3,0 4,-1 2,0 3,0 4,-1 1,-1 2,-2 3,-3 1,-1 1,-2 1,-4 0,-2 0,-3 -1,-4 -1,-2 -2,-3 -3,-3 -1,-1 -3,-2 -4,-2 -2,0 -3,-1 -5,-1l-10 0 0 19zm14 -36c0,0 0,0 0,0 0,0 0,0 1,0 0,0 0,0 0,0 0,0 1,0 1,0 4,0 8,0 11,1 4,1 7,2 11,3 3,2 6,4 7,7 2,3 3,7 3,11 0,4 -1,7 -2,9 -1,3 -2,5 -4,6 -2,2 -4,3 -7,4 -2,1 -5,2 -8,2 5,1 8,1 11,3 2,1 4,3 5,6 1,3 2,5 3,8 0,3 1,6 1,9 0,0 0,0 0,1 0,0 0,0 0,0 0,0 0,0 0,0 0,0 0,0 0,0 0,2 0,3 1,4 0,1 0,3 0,4 0,1 0,3 1,4 0,1 0,2 1,3l-26 0c-1,-1 -1,-1 -1,-2 0,-1 0,-2 0,-3 -1,-1 -1,-2 -1,-3 0,-1 0,-2 0,-4 0,0 0,0 0,0 0,0 0,0 0,0 0,0 0,0 0,-1 0,0 0,0 0,0 0,0 0,0 0,-1 0,0 0,0 0,0 0,-3 -1,-5 -1,-7 0,-2 -1,-4 -1,-6 -1,-2 -2,-3 -4,-4 -1,-1 -3,-1 -5,-1l-11 -1 0 33 -24 0 0 -85 38 0z"/>
    <path class="fil0" d="M1869 619c4,1 8,0 11,-1 3,-1 5,-3 7,-5 2,-3 3,-5 5,-8 1,-2 1,-5 2,-8 0,0 0,0 0,0 0,0 0,0 0,0 0,0 0,-1 0,-1 0,0 0,0 0,0 0,0 0,0 0,0 0,0 0,-1 0,-1 0,0 0,0 0,0 0,0 0,0 0,0 0,0 0,-1 0,-1 0,0 0,0 0,0 0,-1 0,-1 0,-1 0,0 0,0 0,0 0,-1 -1,-1 -1,-1 0,-1 0,-1 0,-1 0,-3 -1,-6 -2,-8 -1,-3 -3,-5 -5,-7 -2,-3 -4,-4 -7,-6 -3,-1 -5,-1 -9,-1l-13 -1 0 51 12 0zm0 -68c10,0 18,1 25,3 6,3 11,6 15,10 3,4 5,9 7,14 2,5 3,10 3,16 0,0 0,0 0,0 0,1 0,1 0,1 0,0 0,0 0,0 0,0 0,0 0,0 0,0 0,0 0,1 0,0 0,0 0,0 0,0 0,0 0,0 0,0 0,1 0,1 0,0 0,0 0,0 0,0 0,0 0,0 -1,7 -2,13 -4,18 -2,5 -5,9 -9,12 -4,3 -9,5 -13,7 -5,1 -9,2 -14,2l-46 0 0 -85 36 0z"/>
    <polygon class="fil0" points="1996,551 1996,568 1955,568 1955,585 1993,585 1993,603 1955,603 1955,619 1996,619 1996,636 1931,636 1931,551 "/>
    <polygon class="fil0" points="2073,551 2073,636 2048,636 2048,551 "/>
    <polygon class="fil0" points="2158,551 2158,568 2131,568 2131,636 2108,636 2108,568 2081,568 2081,551 "/>
    <path class="fil0" d="M2200 568l-12 35 22 0 -10 -35zm15 -17l34 85 -27 0 -6 -16 -33 0 -6 16 -25 0 35 -85 28 0z"/>
    <path class="fil0" d="M2283 589l11 0c2,0 4,0 6,-1 2,0 3,-1 5,-2 1,-1 2,-2 2,-4 1,-1 1,-2 1,-4 0,-2 0,-3 -1,-5 -1,-1 -2,-2 -3,-3 -2,-1 -4,-1 -5,-2 -2,0 -4,0 -7,0l-9 0 0 21zm18 -38c5,0 10,1 15,2 4,1 7,3 10,5 2,2 4,5 5,8 1,4 2,8 2,12 0,5 -1,8 -2,12 -1,3 -3,6 -5,8 -3,2 -5,3 -8,5 -3,1 -6,2 -9,2 -1,0 -1,0 -2,0 0,1 -1,1 -2,1 0,0 -1,0 -2,0 0,0 -1,0 -1,0l-19 0 0 30 -24 0 0 -85 42 0z"/>
    <polygon class="fil0" points="2367,551 2367,636 2343,636 2343,551 "/>
    <path class="fil0" d="M2405 587l10 0c0,0 0,0 0,0 0,0 1,0 1,0 0,0 0,0 0,0 1,0 1,0 1,0 1,0 3,0 4,0 1,-1 3,-1 4,-2 1,0 2,-1 3,-2 0,-2 1,-3 1,-5 0,-2 -1,-3 -1,-4 -1,-1 -2,-2 -3,-3 -1,-1 -3,-1 -4,-2 -2,0 -4,0 -5,0l-11 -1 0 19zm14 -36c0,0 1,0 1,0 0,0 0,0 0,0 1,0 1,0 1,0 0,0 0,0 1,0 4,0 7,1 11,1 4,1 7,2 11,4 3,1 5,3 7,6 2,3 3,7 3,11 0,4 -1,7 -2,9 -1,3 -2,5 -4,7 -2,1 -5,2 -7,3 -2,1 -5,2 -8,3 4,0 8,1 10,2 3,1 5,4 6,6 1,3 2,6 2,9 1,2 1,5 2,9 0,0 0,0 0,0 0,0 0,0 0,0 0,0 0,0 0,0 0,0 0,0 0,1 0,1 0,2 0,3 0,2 1,3 1,4 0,2 0,3 0,4 1,1 1,2 1,3l-25 0c-1,0 -1,-1 -1,-2 0,-1 -1,-2 -1,-3 0,-1 0,-2 0,-3 0,-1 0,-2 0,-3 0,0 0,-1 0,-1 0,0 0,0 0,0 0,0 0,0 0,0 0,0 0,0 0,-1 0,0 0,0 0,0 0,-1 0,-1 0,-1 0,-2 -1,-4 -1,-7 -1,-2 -1,-4 -2,-5 0,-2 -1,-4 -3,-5 -1,-1 -3,-1 -6,-1l-11 0 0 32 -24 0 0 -85 38 0z"/>
    <path class="fil0" d="M2507 568l-11 35 22 0 -11 -35zm16 -17l33 85 -26 0 -6 -16 -33 0 -6 16 -25 0 34 -85 29 0z"/>
   </g>
   <path class="fil1" d="M42 201c67,-168 497,-226 961,-129 459,95 779,307 720,474 1,-2 2,-3 3,-5 69,-174 -260,-395 -734,-494 -474,-98 -914,-37 -983,136 -69,174 260,395 734,494 3,1 6,1 9,2 -459,-97 -776,-310 -710,-478z"/>
   <path class="fil1" d="M1659 542c-64,149 -463,192 -890,94 -422,-96 -714,-292 -658,-441 0,2 -1,3 -2,5 -67,154 233,359 670,458 156,36 310,53 445,53 240,1 423,-53 466,-152 66,-154 -233,-359 -670,-459 -3,0 -5,-1 -8,-1 422,97 712,295 647,443z"/>
   <polygon class="fil2" points="353,154 353,591 230,591 230,154 "/>
   <polygon class="fil2" points="762,154 762,244 553,244 553,330 748,330 748,420 553,420 553,506 762,506 762,591 429,591 429,154 "/>
   <path class="fil2" d="M942 449c0,2 0,4 0,6 0,1 0,3 1,5 0,1 0,2 0,3 0,1 1,2 1,3 0,1 0,2 0,3 1,1 1,2 1,3 2,5 4,10 7,14 3,5 7,9 11,13 5,5 11,8 19,10 8,2 17,3 27,3 11,0 20,-1 28,-3 9,-2 16,-5 21,-10 6,-4 10,-9 13,-13 3,-5 5,-10 5,-15 0,-1 0,-1 0,-2 0,0 0,-1 0,-1 0,0 0,0 0,-1 0,0 0,0 0,-1 0,0 0,-1 0,-1 0,0 0,-1 0,-1 -1,-1 -1,-1 -1,-1 0,-1 0,-1 0,-2 -2,-4 -4,-8 -8,-13 -3,-4 -8,-8 -14,-12 -6,-5 -13,-9 -21,-12 -8,-3 -18,-5 -28,-7 -1,0 -1,0 -1,0 -1,0 -1,0 -2,0 0,0 0,0 -1,-1 0,0 -1,0 -1,0 -32,-7 -59,-15 -81,-23 -23,-8 -39,-17 -51,-26 -12,-9 -21,-21 -27,-35 -7,-14 -11,-30 -12,-49 0,0 0,-1 0,-2 0,0 0,-1 0,-1 0,-1 0,-1 0,-1 0,0 0,-1 0,-1 0,0 0,-1 0,-1 0,-22 4,-40 13,-57 9,-16 23,-30 41,-41 18,-11 38,-19 60,-25 22,-5 46,-8 72,-8 35,1 65,5 89,12 23,7 40,17 52,30 11,13 20,27 26,43 6,16 9,34 9,52l-124 -1c0,-6 -1,-12 -4,-18 -2,-6 -6,-11 -10,-15 -5,-4 -11,-8 -19,-10 -7,-2 -15,-3 -24,-3 -9,0 -16,1 -23,3 -6,2 -12,5 -16,9 -4,4 -7,8 -10,12 -2,4 -3,9 -3,14 0,0 0,1 0,1 0,0 0,1 0,1 0,1 0,1 0,1 0,0 0,1 0,1 1,4 2,8 5,12 2,5 5,9 9,12 5,4 10,7 16,10 6,2 14,4 22,5 4,0 9,1 14,2 4,1 9,2 14,3 5,1 10,2 15,3 4,1 9,2 15,3 17,4 33,9 49,16 15,6 30,14 45,23 14,9 25,21 32,36 7,14 11,32 11,52 0,26 -5,48 -14,67 -10,19 -24,34 -43,46 -18,11 -38,19 -61,25 -22,5 -46,8 -72,8 -32,0 -60,-3 -84,-9 -25,-7 -44,-16 -60,-29 -16,-12 -28,-28 -37,-47 -8,-19 -13,-41 -14,-66l0 -1 123 0z"/>
   <polygon class="fil2" points="1394,154 1394,591 1270,591 1270,154 "/>
   <polygon class="fil3" points="405,108 405,545 281,545 281,108 "/>
   <polygon class="fil3" points="814,108 814,198 605,198 605,284 800,284 800,375 605,375 605,460 814,460 814,545 481,545 481,108 "/>
   <path class="fil3" d="M994 403c0,2 0,4 0,6 0,2 0,3 1,5 0,1 0,2 0,3 0,1 0,2 0,3 1,1 1,2 1,3 0,1 1,2 1,3 1,5 3,10 6,14 3,5 7,9 12,14 5,4 11,7 19,9 8,2 16,3 26,3 11,0 21,-1 29,-3 8,-2 15,-5 21,-9 6,-5 10,-9 13,-14 3,-5 5,-10 5,-15 0,-1 0,-1 0,-2 0,0 0,0 0,-1 0,0 -1,0 -1,0 0,-1 0,-1 0,-2 0,0 0,0 0,-1 0,0 0,-1 0,-1 0,0 0,-1 0,-1 0,-1 0,-1 0,-1 -2,-5 -4,-9 -8,-14 -4,-4 -8,-8 -14,-12 -6,-5 -13,-8 -21,-11 -9,-3 -18,-6 -28,-8 -1,0 -1,0 -2,0 0,0 0,0 -1,0 0,0 -1,0 -1,0 0,-1 -1,-1 -1,-1 -32,-7 -60,-15 -82,-23 -22,-8 -39,-17 -50,-25 -12,-10 -21,-21 -28,-35 -6,-15 -10,-31 -11,-49 0,-1 0,-2 0,-2 0,-1 0,-2 0,-2 0,0 0,-1 0,-1 0,0 0,0 0,-1 0,0 0,-1 0,-1 0,-21 4,-40 13,-56 9,-17 23,-31 41,-42 18,-11 38,-19 60,-25 22,-5 46,-8 71,-8 36,1 66,5 89,12 24,7 41,17 53,30 11,13 20,27 26,43 6,16 9,34 9,53l-124 -2c0,-6 -1,-12 -4,-18 -2,-5 -6,-10 -11,-15 -5,-4 -11,-8 -18,-10 -7,-2 -15,-3 -25,-3 -8,0 -15,1 -22,3 -6,2 -12,5 -16,9 -4,4 -7,8 -10,12 -2,5 -3,9 -3,14 0,0 0,1 0,1 0,1 0,1 0,1 0,1 0,1 0,1 0,0 0,1 0,1 0,4 2,8 4,13 3,4 6,8 10,11 4,4 10,8 16,10 6,2 13,4 21,5 5,1 10,2 14,3 5,1 10,1 15,2 5,1 9,2 14,3 5,1 10,2 15,3 17,4 34,10 49,16 16,6 31,14 46,24 14,8 24,20 32,35 7,15 10,32 10,52 0,26 -4,49 -13,67 -10,19 -24,34 -43,46 -18,11 -39,19 -61,25 -22,5 -47,8 -73,8 -32,0 -59,-3 -84,-9 -24,-7 -44,-16 -59,-28 -16,-13 -29,-29 -37,-48 -9,-19 -13,-41 -15,-66l0 -1 124 0z"/>
   <polygon class="fil3" points="1445,108 1445,545 1322,545 1322,108 "/>
   <polygon class="fil1" points="380,132 380,569 256,569 256,132 "/>
   <polygon class="fil1" points="789,132 789,222 580,222 580,307 775,307 775,398 580,398 580,483 789,483 789,569 456,569 456,132 "/>
   <path class="fil1" d="M969 426c0,2 0,4 0,6 0,2 0,4 1,6 0,0 0,1 0,2 0,1 0,2 0,3 1,1 1,2 1,3 0,1 1,2 1,3 1,5 3,10 6,15 4,4 7,8 12,13 5,4 11,7 19,9 8,2 16,3 27,3 10,0 20,-1 28,-3 8,-2 15,-5 21,-9 6,-5 10,-9 13,-14 3,-5 5,-10 5,-15 0,0 0,-1 0,-1 0,-1 0,-1 0,-1 0,0 0,-1 0,-1 0,0 0,-1 0,-1 0,-1 0,-1 0,-2 0,0 0,0 0,-1 -1,0 -1,-1 -1,-1 0,0 0,-1 0,-1 -2,-5 -4,-9 -8,-13 -4,-5 -8,-9 -14,-13 -6,-5 -13,-8 -21,-11 -8,-3 -18,-6 -28,-8 -1,0 -1,0 -2,0 0,0 0,0 -1,0 0,0 -1,0 -1,0 0,0 -1,-1 -1,-1 -32,-7 -59,-14 -82,-23 -22,-8 -39,-16 -50,-25 -12,-10 -21,-21 -27,-35 -7,-14 -11,-31 -12,-49 0,-1 0,-2 0,-2 0,-1 0,-1 0,-2 0,0 0,0 0,-1 0,0 0,0 0,-1 0,0 0,0 0,-1 0,-21 4,-40 13,-56 9,-17 23,-30 41,-42 18,-10 38,-19 60,-24 22,-6 46,-9 71,-9 36,1 66,6 89,13 24,7 41,17 53,29 11,13 20,27 26,43 6,16 9,34 9,53l-124 -1c0,-7 -1,-13 -4,-18 -2,-6 -6,-11 -11,-16 -4,-4 -10,-7 -18,-10 -7,-2 -15,-3 -24,-3 -9,0 -16,1 -23,3 -6,2 -12,5 -16,9 -4,4 -7,8 -10,13 -2,4 -3,8 -3,13 0,1 0,1 0,1 0,1 0,1 0,2 0,0 0,0 0,1 0,0 0,0 0,0 0,4 2,9 4,13 3,4 6,8 10,12 5,4 10,7 16,9 6,3 13,4 22,5 4,1 9,2 13,3 5,1 10,2 15,2 5,1 10,2 14,3 5,1 10,2 15,3 17,5 34,10 49,16 16,7 31,14 46,24 14,9 24,20 32,35 7,15 10,32 10,52 0,26 -4,49 -13,68 -10,18 -24,33 -43,45 -18,11 -39,20 -61,25 -22,6 -47,8 -73,8 -31,0 -59,-3 -84,-9 -24,-6 -44,-16 -59,-28 -16,-13 -29,-29 -37,-48 -9,-19 -13,-41 -15,-66l0 -1 124 0z"/>
   <path class="fil4" d="M969 426c0,2 0,4 0,6 0,2 0,4 1,6 0,0 0,1 0,2 0,1 0,2 0,3 1,1 1,2 1,3 0,1 1,2 1,3 1,5 3,10 6,15 4,4 7,8 12,13 5,4 11,7 19,9 8,2 16,3 27,3 10,0 20,-1 28,-3 8,-2 15,-5 21,-9 6,-5 10,-9 13,-14 3,-5 5,-10 5,-15 0,0 0,-1 0,-1 0,0 0,-1 0,-1 0,0 0,-1 0,-1 0,0 0,-1 0,-1 0,0 0,-2 0,-2 0,0 0,-1 0,-1 -1,0 -1,-1 -1,-1 0,0 0,-1 0,-1 -2,-5 -4,-9 -8,-13 -4,-5 -8,-9 -14,-13 -6,-5 -13,-8 -21,-11 -8,-3 -18,-6 -28,-8 0,0 -2,0 -2,0 0,0 -1,0 -1,0 0,0 -1,0 -1,0 0,0 -1,-1 -1,-1 -32,-7 -59,-14 -82,-23 -22,-8 -39,-16 -50,-25 -12,-10 -21,-21 -27,-35 -7,-14 -11,-31 -12,-49 0,-1 0,-2 0,-2 0,0 0,-2 0,-2 0,0 0,-1 0,-1 0,0 0,-1 0,-1 0,0 0,-1 0,-1 0,-21 4,-40 13,-56 9,-17 23,-30 41,-42 18,-10 38,-19 60,-24 22,-6 46,-9 71,-9 36,1 66,6 89,13 24,7 41,17 53,29 11,13 20,27 26,43 6,16 9,34 9,53l-124 -1c0,-7 -1,-13 -4,-18 -2,-6 -6,-11 -11,-16 -4,-4 -10,-7 -18,-10 -7,-2 -15,-3 -24,-3 -9,0 -16,1 -23,3 -6,2 -12,5 -16,9 -4,4 -7,8 -10,13 -2,4 -3,8 -3,13 0,0 0,1 0,1 0,0 0,2 0,2 0,0 0,1 0,1 0,0 0,0 0,0 0,4 2,9 4,13 3,4 6,8 10,12 5,4 10,7 16,9 6,3 13,4 22,5 4,1 9,2 13,3 5,1 10,2 15,2 5,1 10,2 14,3 5,1 10,2 15,3 17,5 34,10 49,16 16,7 31,14 46,24 14,9 24,20 32,35 7,15 10,32 10,52 0,26 -4,49 -13,68 -10,18 -24,33 -43,45 -18,11 -39,20 -61,25 -22,6 -47,8 -73,8 -31,0 -59,-3 -84,-9 -24,-6 -44,-16 -59,-28 -16,-13 -29,-29 -37,-48 -9,-19 -13,-41 -15,-66l0 -1 124 0z"/>
   <polygon class="fil1" points="1421,132 1421,569 1297,569 1297,132 "/>
  </g>
 </g>
</svg>
